<?xml version="1.0" standalone="no"?>
<!DOCTYPE svg PUBLIC "-//W3C//DTD SVG 20010904//EN"
 "http://www.w3.org/TR/2001/REC-SVG-20010904/DTD/svg10.dtd">
<svg version="1.0" xmlns="http://www.w3.org/2000/svg"
 width="519.000000pt" height="519.000000pt" viewBox="0 0 519.000000 519.000000"
 preserveAspectRatio="xMidYMid meet">
<metadata>
Created by potrace 1.11, written by Peter Selinger 2001-2013
</metadata>
<g transform="translate(0.000000,519.000000) scale(0.100000,-0.100000)"
fill="#000000" stroke="none">
<path d="M155 4151 c-22 -10 -52 -31 -67 -47 -26 -28 -53 -83 -44 -91 2 -2 9
11 15 30 14 41 54 81 103 101 33 14 290 16 2436 16 2177 0 2403 -1 2438 -16
78 -32 113 -89 117 -189 1 -36 6 -65 10 -65 4 0 5 30 2 66 -9 103 -49 166
-127 199 -33 13 -294 15 -2440 15 -2318 0 -2404 -1 -2443 -19z"/>
<path d="M30 3989 c0 -5 5 -7 10 -4 6 3 10 8 10 11 0 2 -4 4 -10 4 -5 0 -10
-5 -10 -11z"/>
<path d="M204 3971 c-2 -2 -4 -604 -4 -1337 0 -1175 2 -1333 15 -1338 8 -3 15
-1 15 4 0 6 -4 10 -10 10 -7 0 -10 448 -10 1325 l0 1325 28 1 c15 1 37 0 50
-1 12 -1 22 3 22 7 0 9 -97 12 -106 4z"/>
<path d="M332 3968 c-9 -3 36 -6 101 -6 64 0 117 3 117 6 0 9 -195 9 -218 0z"/>
<path d="M572 3968 c-9 -3 36 -6 101 -6 64 0 117 3 117 6 0 9 -195 9 -218 0z"/>
<path d="M812 3968 c-9 -3 36 -6 101 -6 64 0 117 3 117 6 0 9 -195 9 -218 0z"/>
<path d="M1052 3968 c-9 -3 36 -6 101 -6 64 0 117 3 117 6 0 9 -195 9 -218 0z"/>
<path d="M1292 3968 c-9 -3 36 -6 101 -6 64 0 117 3 117 6 0 9 -195 9 -218 0z"/>
<path d="M1532 3968 c-9 -3 36 -6 101 -6 64 0 117 3 117 6 0 9 -195 9 -218 0z"/>
<path d="M1772 3968 c-9 -3 36 -6 101 -6 64 0 117 3 117 6 0 9 -195 9 -218 0z"/>
<path d="M2012 3968 c-9 -3 36 -6 101 -6 64 0 117 3 117 6 0 9 -195 9 -218 0z"/>
<path d="M2252 3968 c-9 -3 36 -6 101 -6 64 0 117 3 117 6 0 9 -195 9 -218 0z"/>
<path d="M2494 3969 c-11 -4 4 -7 39 -7 31 0 57 3 57 7 0 9 -72 9 -96 0z"/>
<path d="M2613 3969 c-12 -5 -7 -8 20 -8 20 -1 37 3 37 8 0 11 -29 11 -57 0z"/>
<path d="M2693 3969 c-12 -5 -7 -8 20 -8 20 -1 37 3 37 8 0 11 -29 11 -57 0z"/>
<path d="M2773 3969 c-12 -5 -7 -8 20 -8 20 -1 37 3 37 8 0 11 -29 11 -57 0z"/>
<path d="M2853 3969 c-12 -5 -7 -8 20 -8 20 -1 37 3 37 8 0 11 -29 11 -57 0z"/>
<path d="M2933 3969 c-12 -5 -7 -8 20 -8 20 -1 37 3 37 8 0 11 -29 11 -57 0z"/>
<path d="M3013 3969 c-12 -5 -7 -8 20 -8 20 -1 37 3 37 8 0 11 -29 11 -57 0z"/>
<path d="M3093 3969 c-12 -5 -7 -8 20 -8 20 -1 37 3 37 8 0 11 -29 11 -57 0z"/>
<path d="M3173 3969 c-12 -5 -7 -8 20 -8 20 -1 37 3 37 8 0 11 -29 11 -57 0z"/>
<path d="M3253 3969 c-12 -5 -7 -8 20 -8 20 -1 37 3 37 8 0 11 -29 11 -57 0z"/>
<path d="M3333 3969 c-12 -5 -7 -8 20 -8 20 -1 37 3 37 8 0 11 -29 11 -57 0z"/>
<path d="M3413 3969 c-12 -5 -7 -8 20 -8 20 -1 37 3 37 8 0 11 -29 11 -57 0z"/>
<path d="M3493 3969 c-12 -5 -7 -8 20 -8 20 -1 37 3 37 8 0 11 -29 11 -57 0z"/>
<path d="M3573 3969 c-12 -5 -7 -8 20 -8 20 -1 37 3 37 8 0 11 -29 11 -57 0z"/>
<path d="M3653 3969 c-12 -5 -7 -8 20 -8 20 -1 37 3 37 8 0 11 -29 11 -57 0z"/>
<path d="M3733 3969 c-12 -5 -7 -8 20 -8 20 -1 37 3 37 8 0 11 -29 11 -57 0z"/>
<path d="M3814 3969 c-11 -4 4 -7 39 -7 31 0 57 3 57 7 0 9 -72 9 -96 0z"/>
<path d="M3932 3968 c-9 -3 36 -6 101 -6 64 0 117 3 117 6 0 9 -195 9 -218 0z"/>
<path d="M4172 3968 c-9 -3 36 -6 101 -6 64 0 117 3 117 6 0 9 -195 9 -218 0z"/>
<path d="M4412 3968 c-9 -3 36 -6 101 -6 64 0 117 3 117 6 0 9 -195 9 -218 0z"/>
<path d="M4652 3968 c-9 -3 36 -6 101 -6 64 0 117 3 117 6 0 9 -195 9 -218 0z"/>
<path d="M4895 3969 c-16 -7 -13 -8 15 -8 85 2 82 4 78 -51 -1 -28 0 -50 5
-50 4 0 7 25 7 55 0 30 -3 55 -7 56 -58 5 -81 5 -98 -2z"/>
<path d="M30 3913 c0 -31 3 -54 6 -50 9 9 11 107 2 107 -4 0 -8 -25 -8 -57z"/>
<path d="M5155 3845 c0 -19 3 -35 7 -35 4 0 7 16 6 35 -2 46 -14 46 -13 0z"/>
<path d="M30 3373 c0 -262 3 -473 7 -470 9 9 10 947 1 947 -4 0 -7 -215 -8
-477z"/>
<path d="M4989 3848 c-5 -19 -2 -88 4 -88 4 0 7 20 7 45 0 25 -2 45 -5 45 -3
0 -5 -1 -6 -2z"/>
<path d="M5155 3765 c0 -19 3 -35 7 -35 4 0 7 16 6 35 -2 46 -14 46 -13 0z"/>
<path d="M4987 3710 c3 -11 7 -20 9 -20 2 0 4 9 4 20 0 11 -4 20 -9 20 -5 0
-7 -9 -4 -20z"/>
<path d="M5155 3685 c0 -19 3 -35 7 -35 4 0 7 16 6 35 -2 46 -14 46 -13 0z"/>
<path d="M4985 3640 c0 -22 3 -40 8 -40 4 0 7 18 7 40 0 22 -3 40 -7 40 -5 0
-8 -18 -8 -40z"/>
<path d="M5155 3605 c0 -19 3 -35 7 -35 4 0 7 16 6 35 -2 46 -14 46 -13 0z"/>
<path d="M4988 3565 c-3 -14 -1 -25 3 -25 5 0 9 11 9 25 0 14 -2 25 -4 25 -2
0 -6 -11 -8 -25z"/>
<path d="M5155 3525 c0 -19 3 -35 7 -35 4 0 7 16 6 35 -2 46 -14 46 -13 0z"/>
<path d="M4989 3528 c-5 -19 -2 -88 4 -88 4 0 7 20 7 45 0 25 -2 45 -5 45 -3
0 -5 -1 -6 -2z"/>
<path d="M680 3500 c-75 -14 -122 -52 -137 -110 -29 -108 26 -179 167 -215 66
-17 119 -40 121 -53 10 -53 -5 -76 -57 -91 -38 -11 -112 8 -163 42 l-40 27
-31 -38 -30 -37 22 -18 c40 -32 124 -66 177 -70 140 -12 231 53 231 166 0 84
-48 128 -186 167 -36 11 -77 26 -90 35 -30 19 -31 58 -4 85 28 28 112 25 173
-5 l43 -22 22 33 c28 43 28 46 -5 66 -53 31 -156 50 -213 38z"/>
<path d="M1678 3490 l-23 -6 0 -269 0 -270 199 0 199 0 0 38 c-1 20 -2 40 -2
45 -1 4 -61 6 -133 5 -73 -1 -140 1 -149 3 -13 4 -16 18 -16 69 l0 65 36 1
c20 0 79 1 131 2 l95 2 0 40 0 40 -132 3 -131 3 1 67 2 67 145 5 145 5 0 40 0
40 -172 5 c-95 3 -183 3 -195 0z"/>
<path d="M3259 3492 l-55 -3 -80 -167 -80 -167 -56 117 c-31 65 -67 140 -80
168 l-23 50 -77 0 -77 0 0 -275 0 -275 49 0 50 0 2 202 3 202 88 -176 c82
-162 91 -176 118 -180 29 -5 31 -2 115 166 48 94 89 174 93 178 3 4 6 -81 6
-190 l0 -197 44 -3 c24 -2 47 1 50 6 3 6 6 128 5 273 0 299 8 276 -95 271z"/>
<path d="M1049 3443 c-1 -48 0 -423 0 -476 1 -27 3 -28 48 -25 l48 3 0 103 c1
65 5 106 12 110 9 6 146 7 236 3 15 -1 17 -13 17 -111 l0 -110 50 0 50 0 0
275 0 275 -50 0 -49 0 -3 -117 -3 -118 -120 -1 c-66 0 -125 1 -131 3 -6 2 -10
46 -9 118 l1 115 -48 0 -48 0 -1 -47z"/>
<path d="M2168 3484 c-4 -8 -3 -514 1 -536 0 -5 21 -8 46 -8 50 0 47 -8 47
108 0 59 3 72 17 73 99 7 91 11 159 -84 35 -49 70 -91 77 -93 7 -3 36 -4 64
-2 l52 3 -67 94 -68 95 24 15 c62 41 88 96 84 179 -4 67 -28 109 -79 136 -34
18 -62 21 -196 24 -86 2 -159 0 -161 -4z m313 -111 c16 -15 22 -34 22 -62 0
-73 -47 -100 -168 -98 l-70 2 -2 93 -1 94 99 -4 c85 -3 101 -6 120 -25z"/>
<path d="M3606 3358 c-33 -73 -87 -197 -122 -275 l-63 -143 54 0 53 0 29 63
30 62 124 -1 c68 -1 129 -2 134 -3 6 -1 21 -28 34 -61 l24 -60 54 0 c29 0 53
2 53 5 0 3 -9 25 -21 49 -11 24 -64 145 -118 268 l-98 223 -55 3 -54 3 -58
-133z m160 -103 c23 -52 42 -95 41 -96 -7 -4 -177 -4 -177 1 0 13 84 200 88
195 3 -2 24 -47 48 -100z"/>
<path d="M4079 3478 c-1 -17 -1 -498 0 -521 1 -15 8 -18 48 -15 l48 3 0 182
c0 100 2 184 5 186 3 3 70 -80 150 -183 l145 -189 51 0 c33 -1 53 4 56 12 2 6
4 129 4 272 l-1 260 -50 0 -49 0 0 -192 c0 -106 -1 -193 -2 -193 -2 0 -72 88
-155 195 l-153 195 -48 0 c-31 0 -48 -4 -49 -12z"/>
<path d="M5155 3445 c0 -19 3 -35 7 -35 4 0 7 16 6 35 -2 46 -14 46 -13 0z"/>
<path d="M4987 3390 c3 -11 7 -20 9 -20 2 0 4 9 4 20 0 11 -4 20 -9 20 -5 0
-7 -9 -4 -20z"/>
<path d="M5155 3365 c0 -19 3 -35 7 -35 4 0 7 16 6 35 -2 46 -14 46 -13 0z"/>
<path d="M4985 3320 c0 -22 3 -40 8 -40 4 0 7 18 7 40 0 22 -3 40 -7 40 -5 0
-8 -18 -8 -40z"/>
<path d="M5155 3285 c0 -19 3 -35 7 -35 4 0 7 16 6 35 -2 46 -14 46 -13 0z"/>
<path d="M4988 3245 c-3 -14 -1 -25 3 -25 5 0 9 11 9 25 0 14 -2 25 -4 25 -2
0 -6 -11 -8 -25z"/>
<path d="M5155 3205 c0 -19 3 -35 7 -35 4 0 7 16 6 35 -2 46 -14 46 -13 0z"/>
<path d="M4989 3208 c-5 -19 -2 -88 4 -88 4 0 7 20 7 45 0 25 -2 45 -5 45 -3
0 -5 -1 -6 -2z"/>
<path d="M5155 3125 c0 -19 3 -35 7 -35 4 0 7 16 6 35 -2 46 -14 46 -13 0z"/>
<path d="M4987 3070 c3 -11 7 -20 9 -20 2 0 4 9 4 20 0 11 -4 20 -9 20 -5 0
-7 -9 -4 -20z"/>
<path d="M5155 3045 c0 -19 3 -35 7 -35 4 0 7 16 6 35 -2 46 -14 46 -13 0z"/>
<path d="M4985 3000 c0 -22 3 -40 8 -40 4 0 7 18 7 40 0 22 -3 40 -7 40 -5 0
-8 -18 -8 -40z"/>
<path d="M5155 2965 c0 -19 3 -35 7 -35 4 0 7 16 6 35 -2 46 -14 46 -13 0z"/>
<path d="M4988 2925 c-3 -14 -1 -25 3 -25 5 0 9 11 9 25 0 14 -2 25 -4 25 -2
0 -6 -11 -8 -25z"/>
<path d="M5155 2885 c0 -19 3 -35 7 -35 4 0 7 16 6 35 -2 46 -14 46 -13 0z"/>
<path d="M30 2640 c1 -137 4 -250 8 -250 4 0 7 113 7 250 0 138 -3 250 -8 250
-4 0 -7 -112 -7 -250z"/>
<path d="M4989 2888 c-5 -19 -2 -88 4 -88 4 0 7 20 7 45 0 25 -2 45 -5 45 -3
0 -5 -1 -6 -2z"/>
<path d="M5155 2805 c0 -19 3 -35 7 -35 4 0 7 16 6 35 -2 46 -14 46 -13 0z"/>
<path d="M4987 2750 c3 -11 7 -20 9 -20 2 0 4 9 4 20 0 11 -4 20 -9 20 -5 0
-7 -9 -4 -20z"/>
<path d="M5155 2725 c0 -19 3 -35 7 -35 4 0 7 16 6 35 -2 46 -14 46 -13 0z"/>
<path d="M4985 2680 c0 -22 3 -40 8 -40 4 0 7 18 7 40 0 22 -3 40 -7 40 -5 0
-8 -18 -8 -40z"/>
<path d="M5155 2645 c0 -19 3 -35 7 -35 4 0 7 16 6 35 -2 46 -14 46 -13 0z"/>
<path d="M4988 2605 c-3 -14 -1 -25 3 -25 5 0 9 11 9 25 0 14 -2 25 -4 25 -2
0 -6 -11 -8 -25z"/>
<path d="M1240 2592 c-6 -2 -10 -12 -10 -22 0 -19 39 -19 1411 -18 1216 0
1411 2 1416 15 3 7 3 17 -1 20 -6 7 -2797 11 -2816 5z"/>
<path d="M5155 2565 c0 -19 3 -35 7 -35 4 0 7 16 6 35 -2 46 -14 46 -13 0z"/>
<path d="M4989 2568 c-5 -19 -2 -88 4 -88 4 0 7 20 7 45 0 25 -2 45 -5 45 -3
0 -5 -1 -6 -2z"/>
<path d="M5155 2485 c0 -19 3 -35 7 -35 4 0 7 16 6 35 -2 46 -14 46 -13 0z"/>
<path d="M4987 2430 c3 -11 7 -20 9 -20 2 0 4 9 4 20 0 11 -4 20 -9 20 -5 0
-7 -9 -4 -20z"/>
<path d="M5155 2405 c0 -19 3 -35 7 -35 4 0 7 16 6 35 -2 46 -14 46 -13 0z"/>
<path d="M4985 2360 c0 -22 3 -40 8 -40 4 0 7 18 7 40 0 22 -3 40 -7 40 -5 0
-8 -18 -8 -40z"/>
<path d="M30 2339 c0 -23 2 -40 5 -37 9 9 12 68 4 74 -5 3 -9 -14 -9 -37z"/>
<path d="M5155 2325 c0 -19 3 -35 7 -35 4 0 7 16 6 35 -2 46 -14 46 -13 0z"/>
<path d="M4988 2285 c-3 -14 -1 -25 3 -25 5 0 9 11 9 25 0 14 -2 25 -4 25 -2
0 -6 -11 -8 -25z"/>
<path d="M30 2054 c0 -130 3 -234 7 -230 9 8 10 466 1 466 -4 0 -8 -106 -8
-236z"/>
<path d="M5155 2245 c0 -19 3 -35 7 -35 4 0 7 16 6 35 -2 46 -14 46 -13 0z"/>
<path d="M4989 2248 c-5 -19 -2 -88 4 -88 4 0 7 20 7 45 0 25 -2 45 -5 45 -3
0 -5 -1 -6 -2z"/>
<path d="M5155 2165 c0 -19 3 -35 7 -35 4 0 7 16 6 35 -2 46 -14 46 -13 0z"/>
<path d="M653 2138 c-58 -12 -119 -73 -130 -130 -24 -115 40 -215 148 -233 84
-14 184 38 160 84 -14 26 -22 26 -68 1 -45 -24 -65 -25 -107 -5 -61 29 -84
107 -49 166 32 53 121 69 173 31 l28 -21 22 24 c27 28 19 44 -34 69 -43 20
-91 25 -143 14z"/>
<path d="M1006 2137 c-54 -14 -112 -74 -123 -129 -11 -54 0 -121 27 -158 88
-124 298 -90 334 54 39 153 -84 273 -238 233z m102 -68 c87 -30 95 -171 12
-214 -105 -54 -210 58 -155 165 27 52 82 71 143 49z"/>
<path d="M1809 2141 c-68 -22 -96 -63 -85 -124 9 -46 31 -64 112 -90 71 -23
88 -43 64 -72 -17 -21 -56 -19 -107 6 -42 20 -45 21 -63 4 -29 -26 -25 -39 18
-62 135 -76 288 9 227 126 -15 30 -51 50 -123 72 -51 15 -69 40 -46 63 20 20
54 20 102 0 35 -14 38 -14 54 7 10 11 15 25 12 30 -18 30 -119 54 -165 40z"/>
<path d="M3224 2140 c-84 -19 -136 -81 -142 -169 -7 -97 52 -177 146 -196 43
-9 120 10 155 39 28 22 28 23 9 46 l-19 23 -47 -22 c-58 -28 -101 -23 -140 18
-32 34 -43 94 -24 130 33 62 123 83 178 43 l28 -21 22 24 c20 21 21 27 10 40
-31 38 -115 59 -176 45z"/>
<path d="M4065 2145 c-5 -2 -22 -6 -37 -9 -33 -7 -84 -50 -102 -85 -87 -167
86 -337 259 -255 120 57 127 252 12 318 -38 22 -107 38 -132 31z m107 -102
c80 -80 16 -215 -96 -200 -110 15 -136 167 -37 223 39 22 98 11 133 -23z"/>
<path d="M1319 2093 c-2 -142 1 -305 5 -312 3 -4 19 -6 35 -3 l30 4 3 115 3
114 88 -114 c86 -112 106 -128 150 -119 15 3 17 20 17 183 l0 179 -35 0 -34 0
-3 -122 -3 -123 -95 123 c-87 112 -97 122 -127 122 -33 0 -33 -1 -34 -47z"/>
<path d="M2020 2105 l0 -35 50 0 c41 0 50 -3 51 -17 0 -10 1 -75 1 -145 1 -87
4 -128 12 -129 6 0 19 -2 28 -4 10 -2 21 2 24 7 4 6 7 73 7 149 l0 139 53 0
54 0 0 35 0 35 -140 0 -140 0 0 -35z"/>
<path d="M2350 1961 c0 -189 1 -192 47 -183 23 4 25 9 25 80 1 30 3 32 37 32
32 -1 40 -6 77 -58 38 -54 43 -57 82 -57 23 0 42 1 42 3 0 3 -20 33 -44 68
-41 58 -43 64 -25 69 49 16 67 133 27 180 -30 33 -63 42 -175 44 l-93 2 0
-180z m201 99 c24 -13 25 -57 2 -82 -12 -13 -31 -18 -75 -18 l-58 0 0 48 c0
27 3 52 7 55 10 11 102 8 124 -3z"/>
<path d="M2710 2018 c0 -155 16 -199 84 -228 80 -36 170 -9 205 63 16 33 19
58 18 160 l-2 122 -32 3 -33 3 0 -106 c0 -114 -14 -165 -48 -184 -32 -17 -58
-13 -89 13 -27 24 -28 27 -32 150 l-3 126 -34 0 -34 0 0 -122z"/>
<path d="M3439 2138 c-1 -2 -2 -18 -3 -35 l-2 -33 53 0 53 0 0 -144 c0 -129 2
-144 18 -148 9 -2 25 -2 35 0 15 3 17 18 17 148 l0 144 56 0 55 0 -3 33 -3 32
-137 3 c-76 1 -139 1 -139 0z"/>
<path d="M3772 1958 l3 -181 33 -1 32 -1 0 183 0 182 -35 0 -35 0 2 -182z"/>
<path d="M4349 2138 c-1 -2 -2 -82 -3 -178 -2 -188 -1 -192 50 -182 21 4 22 8
20 118 0 63 1 114 4 114 3 0 21 -22 40 -47 19 -26 60 -79 91 -118 54 -68 58
-71 93 -67 l36 4 -2 177 -3 176 -32 3 -32 3 -3 -124 -3 -124 -95 123 c-86 112
-98 123 -127 123 -18 1 -34 0 -34 -1z"/>
<path d="M4987 2110 c3 -11 7 -20 9 -20 2 0 4 9 4 20 0 11 -4 20 -9 20 -5 0
-7 -9 -4 -20z"/>
<path d="M5155 2085 c0 -19 3 -35 7 -35 4 0 7 16 6 35 -2 46 -14 46 -13 0z"/>
<path d="M4985 2040 c0 -22 3 -40 8 -40 4 0 7 18 7 40 0 22 -3 40 -7 40 -5 0
-8 -18 -8 -40z"/>
<path d="M5155 2005 c0 -19 3 -35 7 -35 4 0 7 16 6 35 -2 46 -14 46 -13 0z"/>
<path d="M4988 1965 c-3 -14 -1 -25 3 -25 5 0 9 11 9 25 0 14 -2 25 -4 25 -2
0 -6 -11 -8 -25z"/>
<path d="M5155 1925 c0 -19 3 -35 7 -35 4 0 7 16 6 35 -2 46 -14 46 -13 0z"/>
<path d="M4989 1928 c-5 -19 -2 -88 4 -88 4 0 7 20 7 45 0 25 -2 45 -5 45 -3
0 -5 -1 -6 -2z"/>
<path d="M5155 1845 c0 -19 3 -35 7 -35 4 0 7 16 6 35 -2 46 -14 46 -13 0z"/>
<path d="M30 1643 c0 -91 3 -163 7 -160 9 10 10 327 1 327 -5 0 -8 -75 -8
-167z"/>
<path d="M4987 1790 c3 -11 7 -20 9 -20 2 0 4 9 4 20 0 11 -4 20 -9 20 -5 0
-7 -9 -4 -20z"/>
<path d="M5155 1765 c0 -19 3 -35 7 -35 4 0 7 16 6 35 -2 46 -14 46 -13 0z"/>
<path d="M4985 1720 c0 -22 3 -40 8 -40 4 0 7 18 7 40 0 22 -3 40 -7 40 -5 0
-8 -18 -8 -40z"/>
<path d="M5155 1685 c0 -19 3 -35 7 -35 4 0 7 16 6 35 -2 46 -14 46 -13 0z"/>
<path d="M4988 1645 c-3 -14 -1 -25 3 -25 5 0 9 11 9 25 0 14 -2 25 -4 25 -2
0 -6 -11 -8 -25z"/>
<path d="M5155 1605 c0 -19 3 -35 7 -35 4 0 7 16 6 35 -2 46 -14 46 -13 0z"/>
<path d="M4989 1608 c-5 -19 -2 -88 4 -88 4 0 7 20 7 45 0 25 -2 45 -5 45 -3
0 -5 -1 -6 -2z"/>
<path d="M5155 1525 c0 -19 3 -35 7 -35 4 0 7 16 6 35 -2 46 -14 46 -13 0z"/>
<path d="M4987 1470 c3 -11 7 -20 9 -20 2 0 4 9 4 20 0 11 -4 20 -9 20 -5 0
-7 -9 -4 -20z"/>
<path d="M5155 1445 c0 -19 3 -35 7 -35 4 0 7 16 6 35 -2 46 -14 46 -13 0z"/>
<path d="M31 1344 c0 -71 3 -121 7 -112 9 21 7 226 -2 235 -3 4 -6 -52 -5
-123z"/>
<path d="M4985 1400 c0 -22 3 -40 8 -40 4 0 7 18 7 40 0 22 -3 40 -7 40 -5 0
-8 -18 -8 -40z"/>
<path d="M2350 1288 c0 -87 3 -118 13 -119 6 0 40 -2 75 -2 58 -2 62 -1 62 21
0 17 -6 22 -27 23 -85 3 -78 -6 -79 94 -2 112 0 104 -24 102 -19 -1 -20 -8
-20 -119z"/>
<path d="M2535 1401 c-3 -2 -5 -55 -5 -118 l0 -113 28 -1 c15 0 44 -2 66 -3
43 -2 70 13 61 34 -4 11 -18 14 -55 12 l-50 -4 0 99 c0 93 -1 99 -20 99 -12 0
-23 -2 -25 -5z"/>
<path d="M2763 1390 c-54 -33 -71 -93 -44 -158 25 -61 112 -87 171 -51 33 21
37 31 17 48 -10 8 -19 7 -33 -4 -28 -21 -59 -18 -88 8 -72 64 11 166 94 115
16 -10 23 -10 36 3 14 15 13 18 -12 38 -34 27 -98 28 -141 1z"/>
<path d="M5155 1365 c0 -19 3 -35 7 -35 4 0 7 16 6 35 -2 46 -14 46 -13 0z"/>
<path d="M4990 1332 c0 -19 -6 -22 -40 -22 -22 0 -40 -3 -40 -7 0 -5 18 -8 40
-8 34 0 42 4 47 23 3 13 3 26 -1 29 -3 4 -6 -3 -6 -15z"/>
<path d="M5155 1280 c0 -22 2 -40 6 -40 3 0 6 18 6 40 0 22 -3 40 -6 40 -4 0
-6 -18 -6 -40z"/>
<path d="M250 1303 c0 -10 78 -9 87 1 3 3 -15 6 -40 6 -26 0 -47 -3 -47 -7z"/>
<path d="M350 1303 c0 -5 18 -8 40 -8 22 0 40 3 40 8 0 4 -18 7 -40 7 -22 0
-40 -3 -40 -7z"/>
<path d="M440 1306 c0 -2 9 -6 20 -9 11 -3 20 -1 20 4 0 5 -9 9 -20 9 -11 0
-20 -2 -20 -4z"/>
<path d="M490 1303 c0 -10 78 -9 87 1 3 3 -15 6 -40 6 -26 0 -47 -3 -47 -7z"/>
<path d="M590 1303 c0 -5 18 -8 40 -8 22 0 40 3 40 8 0 4 -18 7 -40 7 -22 0
-40 -3 -40 -7z"/>
<path d="M680 1306 c0 -2 9 -6 20 -9 11 -3 20 -1 20 4 0 5 -9 9 -20 9 -11 0
-20 -2 -20 -4z"/>
<path d="M730 1303 c0 -10 78 -9 87 1 3 3 -15 6 -40 6 -26 0 -47 -3 -47 -7z"/>
<path d="M830 1303 c0 -5 18 -8 40 -8 22 0 40 3 40 8 0 4 -18 7 -40 7 -22 0
-40 -3 -40 -7z"/>
<path d="M920 1306 c0 -2 9 -6 20 -9 11 -3 20 -1 20 4 0 5 -9 9 -20 9 -11 0
-20 -2 -20 -4z"/>
<path d="M970 1303 c0 -10 78 -9 87 1 3 3 -15 6 -40 6 -26 0 -47 -3 -47 -7z"/>
<path d="M1070 1303 c0 -5 18 -8 40 -8 22 0 40 3 40 8 0 4 -18 7 -40 7 -22 0
-40 -3 -40 -7z"/>
<path d="M1160 1306 c0 -2 9 -6 20 -9 11 -3 20 -1 20 4 0 5 -9 9 -20 9 -11 0
-20 -2 -20 -4z"/>
<path d="M1210 1303 c0 -10 78 -9 87 1 3 3 -15 6 -40 6 -26 0 -47 -3 -47 -7z"/>
<path d="M1310 1303 c0 -5 18 -8 40 -8 22 0 40 3 40 8 0 4 -18 7 -40 7 -22 0
-40 -3 -40 -7z"/>
<path d="M1400 1306 c0 -2 9 -6 20 -9 11 -3 20 -1 20 4 0 5 -9 9 -20 9 -11 0
-20 -2 -20 -4z"/>
<path d="M1450 1303 c0 -10 78 -9 87 1 3 3 -15 6 -40 6 -26 0 -47 -3 -47 -7z"/>
<path d="M1550 1303 c0 -5 18 -8 40 -8 22 0 40 3 40 8 0 4 -18 7 -40 7 -22 0
-40 -3 -40 -7z"/>
<path d="M1640 1306 c0 -2 9 -6 20 -9 11 -3 20 -1 20 4 0 5 -9 9 -20 9 -11 0
-20 -2 -20 -4z"/>
<path d="M1690 1303 c0 -10 78 -9 87 1 3 3 -15 6 -40 6 -26 0 -47 -3 -47 -7z"/>
<path d="M1790 1303 c0 -5 18 -8 40 -8 22 0 40 3 40 8 0 4 -18 7 -40 7 -22 0
-40 -3 -40 -7z"/>
<path d="M1880 1306 c0 -2 9 -6 20 -9 11 -3 20 -1 20 4 0 5 -9 9 -20 9 -11 0
-20 -2 -20 -4z"/>
<path d="M1930 1303 c0 -10 78 -9 87 1 3 3 -15 6 -40 6 -26 0 -47 -3 -47 -7z"/>
<path d="M2030 1303 c0 -5 18 -8 40 -8 22 0 40 3 40 8 0 4 -18 7 -40 7 -22 0
-40 -3 -40 -7z"/>
<path d="M2120 1306 c0 -9 39 -13 51 -5 10 6 4 9 -18 9 -18 0 -33 -2 -33 -4z"/>
<path d="M2950 1306 c0 -2 14 -6 30 -8 17 -3 30 -1 30 4 0 4 -13 8 -30 8 -16
0 -30 -2 -30 -4z"/>
<path d="M3020 1306 c0 -8 71 -12 76 -4 3 4 -13 8 -35 8 -23 0 -41 -2 -41 -4z"/>
<path d="M3110 1303 c0 -5 14 -8 30 -8 17 0 30 3 30 8 0 4 -13 7 -30 7 -16 0
-30 -3 -30 -7z"/>
<path d="M3180 1306 c0 -8 71 -12 76 -4 3 4 -13 8 -35 8 -23 0 -41 -2 -41 -4z"/>
<path d="M3270 1303 c0 -5 14 -8 30 -8 17 0 30 3 30 8 0 4 -13 7 -30 7 -16 0
-30 -3 -30 -7z"/>
<path d="M3340 1306 c0 -8 71 -12 76 -4 3 4 -13 8 -35 8 -23 0 -41 -2 -41 -4z"/>
<path d="M3430 1303 c0 -5 14 -8 30 -8 17 0 30 3 30 8 0 4 -13 7 -30 7 -16 0
-30 -3 -30 -7z"/>
<path d="M3500 1306 c0 -8 71 -12 76 -4 3 4 -13 8 -35 8 -23 0 -41 -2 -41 -4z"/>
<path d="M3590 1303 c0 -5 14 -8 30 -8 17 0 30 3 30 8 0 4 -13 7 -30 7 -16 0
-30 -3 -30 -7z"/>
<path d="M3660 1306 c0 -8 71 -12 76 -4 3 4 -13 8 -35 8 -23 0 -41 -2 -41 -4z"/>
<path d="M3750 1303 c0 -5 14 -8 30 -8 17 0 30 3 30 8 0 4 -13 7 -30 7 -16 0
-30 -3 -30 -7z"/>
<path d="M3850 1303 c0 -10 78 -9 87 1 3 3 -15 6 -40 6 -26 0 -47 -3 -47 -7z"/>
<path d="M3950 1303 c0 -5 18 -8 40 -8 22 0 40 3 40 8 0 4 -18 7 -40 7 -22 0
-40 -3 -40 -7z"/>
<path d="M4040 1306 c0 -2 9 -6 20 -9 11 -3 20 -1 20 4 0 5 -9 9 -20 9 -11 0
-20 -2 -20 -4z"/>
<path d="M4090 1303 c0 -10 78 -9 87 1 3 3 -15 6 -40 6 -26 0 -47 -3 -47 -7z"/>
<path d="M4190 1303 c0 -5 18 -8 40 -8 22 0 40 3 40 8 0 4 -18 7 -40 7 -22 0
-40 -3 -40 -7z"/>
<path d="M4280 1306 c0 -2 9 -6 20 -9 11 -3 20 -1 20 4 0 5 -9 9 -20 9 -11 0
-20 -2 -20 -4z"/>
<path d="M4330 1303 c0 -10 78 -9 87 1 3 3 -15 6 -40 6 -26 0 -47 -3 -47 -7z"/>
<path d="M4430 1303 c0 -5 18 -8 40 -8 22 0 40 3 40 8 0 4 -18 7 -40 7 -22 0
-40 -3 -40 -7z"/>
<path d="M4520 1306 c0 -2 9 -6 20 -9 11 -3 20 -1 20 4 0 5 -9 9 -20 9 -11 0
-20 -2 -20 -4z"/>
<path d="M4570 1303 c0 -10 78 -9 87 1 3 3 -15 6 -40 6 -26 0 -47 -3 -47 -7z"/>
<path d="M4670 1303 c0 -5 18 -8 40 -8 22 0 40 3 40 8 0 4 -18 7 -40 7 -22 0
-40 -3 -40 -7z"/>
<path d="M4760 1306 c0 -2 9 -6 20 -9 11 -3 20 -1 20 4 0 5 -9 9 -20 9 -11 0
-20 -2 -20 -4z"/>
<path d="M4810 1303 c0 -10 78 -9 87 1 3 3 -15 6 -40 6 -26 0 -47 -3 -47 -7z"/>
<path d="M5154 1213 c5 -32 -22 -105 -51 -135 -38 -41 -85 -58 -154 -58 -33 0
-59 -4 -59 -9 0 -9 69 -6 128 4 42 8 117 76 131 118 16 51 22 97 12 97 -5 0
-8 -8 -7 -17z"/>
<path d="M35 1179 c8 -47 30 -82 71 -118 41 -36 67 -48 110 -51 61 -4 66 3 6
10 -48 5 -72 14 -100 37 -41 33 -83 104 -77 134 2 10 0 19 -6 19 -5 0 -7 -14
-4 -31z"/>
<path d="M290 1010 c0 -5 14 -7 31 -5 44 5 45 12 4 13 -19 1 -35 -3 -35 -8z"/>
<path d="M370 1012 c0 -10 98 -7 107 2 4 3 -19 6 -50 6 -31 0 -57 -4 -57 -8z"/>
<path d="M490 1010 c0 -12 8 -12 35 0 18 8 17 9 -7 9 -16 1 -28 -3 -28 -9z"/>
<path d="M550 1010 c0 -12 8 -12 35 0 18 8 17 9 -7 9 -16 1 -28 -3 -28 -9z"/>
<path d="M610 1013 c0 -10 188 -9 197 0 3 4 -39 7 -95 7 -56 0 -102 -3 -102
-7z"/>
<path d="M823 1013 c6 -9 205 -8 214 1 4 3 -44 6 -106 6 -62 0 -110 -3 -108
-7z"/>
<path d="M1050 1012 c0 -10 98 -7 107 2 4 3 -19 6 -50 6 -31 0 -57 -4 -57 -8z"/>
<path d="M1170 1012 c0 -9 97 -9 105 0 3 3 -20 6 -50 7 -30 1 -55 -2 -55 -7z"/>
<path d="M1290 1013 c0 -9 218 -8 227 1 4 3 -46 6 -110 6 -64 0 -117 -3 -117
-7z"/>
<path d="M1530 1013 c0 -10 188 -9 197 1 3 3 -39 6 -95 6 -56 0 -102 -3 -102
-7z"/>
<path d="M1743 1013 c6 -10 135 -9 144 0 3 4 -28 7 -71 7 -42 0 -75 -3 -73 -7z"/>
<path d="M1906 1010 c7 -7 19 -7 35 -1 23 9 22 10 -10 10 -24 1 -32 -2 -25 -9z"/>
<path d="M1970 1012 c0 -10 76 -9 86 1 4 4 -14 7 -39 7 -26 0 -47 -4 -47 -8z"/>
<path d="M2090 1012 c0 -10 98 -7 107 2 4 3 -19 6 -50 6 -31 0 -57 -4 -57 -8z"/>
<path d="M2210 1010 c0 -5 14 -7 31 -5 44 5 45 12 4 13 -19 1 -35 -3 -35 -8z"/>
<path d="M2290 1012 c0 -9 128 -8 137 2 4 3 -26 6 -65 6 -40 0 -72 -4 -72 -8z"/>
<path d="M2449 1011 c8 -5 26 -7 40 -4 42 7 37 13 -10 13 -30 0 -39 -3 -30 -9z"/>
<path d="M2530 1011 c0 -9 98 -6 108 3 3 3 -20 6 -51 6 -31 0 -57 -4 -57 -9z"/>
<path d="M2650 1013 c0 -9 218 -8 227 1 4 3 -46 6 -110 6 -64 0 -117 -3 -117
-7z"/>
<path d="M2890 1012 c0 -10 98 -7 107 2 4 3 -19 6 -50 6 -31 0 -57 -4 -57 -8z"/>
<path d="M3010 1013 c0 -10 378 -9 387 1 3 3 -82 6 -190 6 -108 0 -197 -3
-197 -7z"/>
<path d="M3410 1010 c0 -12 8 -12 35 0 18 8 17 9 -7 9 -16 1 -28 -3 -28 -9z"/>
<path d="M3470 1010 c0 -12 8 -12 35 0 18 8 17 9 -7 9 -16 1 -28 -3 -28 -9z"/>
<path d="M3530 1012 c0 -10 76 -9 86 1 4 4 -14 7 -39 7 -26 0 -47 -4 -47 -8z"/>
<path d="M3650 1012 c0 -10 98 -7 107 2 4 3 -19 6 -50 6 -31 0 -57 -4 -57 -8z"/>
<path d="M3770 1012 c0 -10 98 -7 107 2 4 3 -19 6 -50 6 -31 0 -57 -4 -57 -8z"/>
<path d="M3890 1010 c0 -12 8 -12 35 0 18 8 17 9 -7 9 -16 1 -28 -3 -28 -9z"/>
<path d="M3950 1010 c0 -12 8 -12 35 0 18 8 17 9 -7 9 -16 1 -28 -3 -28 -9z"/>
<path d="M4010 1012 c0 -10 98 -7 107 2 4 3 -19 6 -50 6 -31 0 -57 -4 -57 -8z"/>
<path d="M4130 1010 c0 -6 13 -8 32 -5 46 8 48 15 5 15 -20 0 -37 -5 -37 -10z"/>
<path d="M4210 1010 c0 -5 4 -10 9 -10 6 0 13 5 16 10 3 6 -1 10 -9 10 -9 0
-16 -4 -16 -10z"/>
<path d="M4250 1011 c0 -4 14 -7 32 -5 45 6 48 14 5 14 -20 0 -37 -4 -37 -9z"/>
<path d="M4330 1010 c0 -12 8 -12 35 0 18 8 17 9 -7 9 -16 1 -28 -3 -28 -9z"/>
<path d="M4390 1010 c0 -12 8 -12 35 0 18 8 17 9 -7 9 -16 1 -28 -3 -28 -9z"/>
<path d="M4450 1013 c0 -10 397 -9 406 0 4 4 -86 7 -199 7 -114 0 -207 -3
-207 -7z"/>
</g>
</svg>
